<svg width="50" height="50" viewBox="0 0 50 50" fill="none" xmlns="http://www.w3.org/2000/svg">
<path d="M22.3144 2.16797C19.2773 2.50977 15.6445 3.7793 12.9882 5.41992C10.8398 6.75781 8.37883 8.94531 6.91399 10.8398C4.41399 14.0723 2.84172 17.793 2.22649 21.9238C2.03118 23.252 2.06047 26.9238 2.27532 28.3203C3.28118 34.8145 6.87493 40.4785 12.3046 44.1016C15.1073 45.9668 18.3886 47.2266 21.7382 47.7246C23.3398 47.959 26.6601 47.959 28.2616 47.7246C32.2753 47.1289 36.2206 45.4102 39.3554 42.9004C43.8378 39.3066 46.8163 34.1406 47.7245 28.3984C47.9687 26.8457 47.9687 23.1543 47.7245 21.6016C46.914 16.4844 44.5116 11.8848 40.8105 8.35938C37.1972 4.92188 32.4023 2.68555 27.5195 2.1582C26.4062 2.03125 23.4277 2.04102 22.3144 2.16797ZM39.746 13.8574C39.746 13.9062 39.5702 14.0918 39.3652 14.2773C38.6034 14.9219 33.1054 19.9902 32.7636 20.3516C32.5878 20.5371 29.6191 23.3008 27.2265 25.498C26.0839 26.5527 25.5956 26.8555 25.0195 26.8555C24.2577 26.8555 24.2284 26.8359 20.1757 23.1055C19.3652 22.3633 18.3105 21.3672 17.8222 20.9082C16.2499 19.3945 11.5038 15.0195 10.6347 14.2773C10.4296 14.0918 10.2538 13.9062 10.2538 13.8574C10.2538 13.8086 16.123 13.7695 24.9999 13.7695C33.8769 13.7695 39.746 13.8086 39.746 13.8574ZM13.4765 19.1602C14.9511 20.5078 16.7089 22.1387 17.3827 22.7734L18.5937 23.9258L18.2128 24.3066C17.998 24.5117 16.0839 26.2793 13.9648 28.2227C11.8456 30.1758 9.75579 32.1094 9.3261 32.5195C8.89641 32.9395 8.3593 33.4375 8.13469 33.6426L7.71477 34.0039V24.5215C7.71477 14.8145 7.71477 14.8535 8.08586 14.4336C8.22258 14.2773 8.32024 14.3555 9.51165 15.4785C10.2148 16.1426 12.0019 17.8027 13.4765 19.1602ZM42.1093 14.7559C42.2753 15.0684 42.2851 15.7324 42.2851 24.5508V34.0039L41.6601 33.4375C40.2343 32.1289 32.8124 25.2051 32.1777 24.5898L31.4941 23.916L32.4316 23.0176C32.9394 22.5195 34.7655 20.8398 36.4745 19.2871C38.1933 17.7246 40.078 15.9863 40.6738 15.4102C41.2597 14.834 41.7968 14.375 41.8456 14.3848C41.9042 14.4043 42.0214 14.5703 42.1093 14.7559ZM21.4355 26.4746C23.3984 28.3105 23.6816 28.4668 25.0488 28.4668C26.4452 28.4668 26.7187 28.3203 28.6327 26.5234C29.4823 25.7324 30.2148 25.0977 30.2636 25.1172C30.3222 25.127 31.0351 25.791 31.8554 26.5723C32.6757 27.3535 34.6288 29.1699 36.1816 30.6055C40.3515 34.4531 41.6503 35.6836 41.6503 35.791C41.6503 35.8398 41.4941 35.9668 41.3085 36.0645C40.9863 36.2207 40.0488 36.2305 24.9023 36.2109C8.96477 36.1816 8.83782 36.1816 8.52532 35.9863L8.21282 35.791L9.74602 34.3555C10.5859 33.5742 12.7734 31.543 14.5995 29.8535C16.4257 28.1543 18.3398 26.377 18.8476 25.8887C19.3554 25.4102 19.7948 25.0098 19.8241 25.0098C19.8534 25.0098 20.5761 25.6641 21.4355 26.4746Z" fill="black"/>
</svg>
