<svg width="1117" height="635" viewBox="0 0 1117 635" fill="none" xmlns="http://www.w3.org/2000/svg">
<g filter="url(#filter0_d_61_26)">
<path d="M6.5 627.001C6.5 601.001 19.8 545.801 73 533.001C126.2 520.201 190.5 603.501 216.5 554.001C242.5 504.501 297.5 548.501 320 501.501C342.5 454.501 202.917 507.863 283 433.501C360 362.001 432 365.501 451.5 399.501C471 433.501 498.5 399.5 498.5 399.5M647.5 343.5C647.5 343.5 789 284 739 255C689 226 818.5 192 839.5 176.5C860.5 161 878.5 67.0003 818.5 44.5003C758.5 22.0003 712.5 28.5003 656.5 44.5003C600.5 60.5003 595.5 120.5 600.5 142.5C605.5 164.5 610.5 196 665.5 192C720.5 188 781 128 799 149C817 170 936 126 936 97.0002C936 68.0002 987 61.5003 979 17.0003C971 -27.4997 1027.5 34.0001 1043 51.0003C1058.5 68.0004 1069 4 1111 24.0003" stroke="#A82D00" stroke-width="5" stroke-dasharray="15 15" shape-rendering="crispEdges"/>
</g>
<defs>
<filter id="filter0_d_61_26" x="0" y="0.135254" width="1116.07" height="634.866" filterUnits="userSpaceOnUse" color-interpolation-filters="sRGB">
<feFlood flood-opacity="0" result="BackgroundImageFix"/>
<feColorMatrix in="SourceAlpha" type="matrix" values="0 0 0 0 0 0 0 0 0 0 0 0 0 0 0 0 0 0 127 0" result="hardAlpha"/>
<feOffset dy="4"/>
<feGaussianBlur stdDeviation="2"/>
<feComposite in2="hardAlpha" operator="out"/>
<feColorMatrix type="matrix" values="0 0 0 0 0 0 0 0 0 0 0 0 0 0 0 0 0 0 0.25 0"/>
<feBlend mode="normal" in2="BackgroundImageFix" result="effect1_dropShadow_61_26"/>
<feBlend mode="normal" in="SourceGraphic" in2="effect1_dropShadow_61_26" result="shape"/>
</filter>
</defs>
</svg>
